<?xml version="1.0" encoding="utf-8"?>
<!-- Generator: Adobe Illustrator 21.1.0, SVG Export Plug-In . SVG Version: 6.00 Build 0)  -->
<svg version="1.1" id="Layer_1" xmlns="http://www.w3.org/2000/svg" xmlns:xlink="http://www.w3.org/1999/xlink" x="0px" y="0px"
	 viewBox="0 0 594 69.2" style="enable-background:new 0 0 594 69.2;" xml:space="preserve">
<style type="text/css">
	.st0{fill:#88C773;}
	.st1{fill:#212A3F;}
</style>
<title>Untitled-2</title>
<polygon class="st0" points="22.6,69.2 57,21.4 48.1,21.3 47.5,21.3 0.1,21 0,29.3 41.5,29.6 13.1,69.1 "/>
<polygon class="st1" points="16.1,39.6 44.5,0.1 35,0 0.7,47.8 9.6,47.9 10.2,47.9 57.6,48.2 57.7,39.9 "/>
<path class="st0" d="M94.9,21.8c-1.5-0.1-3,0.4-4.2,1.3c-1.1,0.9-1.7,2.2-1.6,3.6c-0.1,1.3,0.3,2.6,1.2,3.6c0.9,0.9,2,1.6,3.2,2
	c1.4,0.5,2.8,0.9,4.3,1.2c1.5,0.4,3.1,0.8,4.6,1.3c1.5,0.5,2.9,1.2,4.3,2c1.3,0.8,2.4,2,3.2,3.4c0.8,1.7,1.3,3.5,1.2,5.4
	c0,3.5-1.5,6.8-4.2,9c-2.8,2.5-6.5,3.8-11.1,3.8c-4.6,0-8.4-1.1-11.2-3.2c-2.9-2.2-4.5-5.6-4.3-9.2h9.2c0.3,3.7,2.5,5.6,6.4,5.6
	c1.7,0.1,3.3-0.5,4.6-1.5c1.1-1,1.8-2.5,1.7-4.1c0-1.6-0.8-3.2-2.3-4c-1.7-1-3.5-1.8-5.5-2.2c-2.1-0.5-4.3-1.1-6.4-1.8
	c-2.1-0.7-4-1.9-5.5-3.6c-1.6-1.9-2.4-4.4-2.3-6.9c-0.1-3.6,1.4-7,4.2-9.3c3.1-2.4,6.9-3.6,10.9-3.5c4.4,0,8,1,10.7,3
	s4.2,5.1,4.4,9.2h-9.4c-0.1-1.5-0.7-2.9-1.8-3.9C97.9,22.2,96.4,21.7,94.9,21.8z"/>
<path class="st0" d="M157.6,24.3h8.2l-10.4,33.8h-9.2l-5.8-22.7l-5.9,22.7h-9.2l-10.4-33.8h8.7L130,50l6.2-25.7h9l6.1,25.7
	L157.6,24.3z"/>
<path class="st0" d="M180.3,15.7c0,2.9-2.3,5.2-5.2,5.2c-2.9,0-5.2-2.3-5.2-5.2s2.3-5.2,5.2-5.2C178,10.5,180.3,12.8,180.3,15.7z
	 M170.8,58.1V24.3h8.6v33.8L170.8,58.1z"/>
<path class="st0" d="M201.7,51h4.1v7.2h-5.4c-3.5,0-6.1-0.8-8-2.4c-1.9-1.6-2.8-4.2-2.8-7.9V31.3h-3.6v-7h3.6v-8.4h8.6v8.4h7.6v7
	h-7.6v16.6c-0.1,0.9,0.2,1.7,0.8,2.3C199.7,50.8,200.7,51,201.7,51z"/>
<path class="st0" d="M214.8,53.9c-3.1-3.2-4.6-7.4-4.6-12.6s1.5-9.5,4.6-12.6c3.2-3.2,7.5-4.9,12-4.8c3.7-0.1,7.3,0.9,10.3,3
	c2.8,2.1,4.8,5.1,5.6,8.5h-9.3c-1.1-2.8-3.3-4.2-6.6-4.2c-2.3-0.1-4.4,0.9-5.8,2.7c-1.5,2.2-2.3,4.8-2.1,7.4
	c-0.1,2.6,0.6,5.3,2.1,7.4c1.4,1.8,3.6,2.8,5.8,2.7c3.3,0,5.5-1.4,6.6-4.3h9.3c-0.9,3.4-2.9,6.4-5.7,8.4c-3,2.1-6.6,3.2-10.2,3.1
	C222.3,58.8,217.9,57.1,214.8,53.9z"/>
<path class="st0" d="M256.6,12.9v16.4c2.2-3.7,5.7-5.6,10.5-5.6c3.6-0.1,7,1.3,9.5,3.8c2.4,2.5,3.7,6.1,3.7,10.6v19.9h-8.5V39.5
	c0.2-2.2-0.6-4.4-2-6.1c-1.5-1.5-3.5-2.2-5.5-2.1c-2.1-0.1-4.1,0.7-5.5,2.1c-1.4,1.7-2.2,3.9-2,6.1v18.7H248V12.9H256.6z"/>
<path class="st0" d="M302.1,58.6c-4.5,0.2-8.9-1.6-12-4.8c-3.1-3.2-4.6-7.4-4.6-12.7s1.6-9.5,4.7-12.6c3.2-3.2,7.6-4.9,12.1-4.7
	c4.5-0.2,8.9,1.5,12.2,4.6c3.2,3.1,4.8,7.2,4.8,12.3c0,1.1-0.1,2.2-0.2,3.3h-24.7c0.1,2,1,3.9,2.4,5.3c1.5,1.4,3.4,2.1,5.4,2
	c2.7,0.1,5.3-1.3,6.6-3.7h9.3c-1,3.2-3,6-5.7,7.9C309.3,57.7,305.8,58.7,302.1,58.6z M307.8,33.1c-1.5-1.3-3.5-2.1-5.5-2
	c-2-0.1-3.9,0.7-5.4,2c-1.5,1.4-2.4,3.3-2.6,5.4h16C310.2,36.4,309.3,34.5,307.8,33.1L307.8,33.1z"/>
<path class="st0" d="M328.6,53.8c-3.3-3.2-5-7.4-5-12.7s1.7-9.4,5-12.6c7.1-6.4,17.8-6.4,24.9,0c3.3,3.2,5,7.4,5,12.6
	s-1.7,9.4-5,12.7c-3.4,3.2-7.9,5-12.5,4.8C336.4,58.8,331.9,57,328.6,53.8z M341,51.4c2.3,0,4.6-0.9,6.2-2.7
	c1.7-1.8,2.6-4.3,2.6-7.5s-0.9-5.7-2.6-7.5c-1.6-1.7-3.9-2.7-6.2-2.6c-2.3,0-4.6,0.9-6.1,2.6c-1.7,1.8-2.5,4.3-2.5,7.5
	c0,3.3,0.8,5.8,2.5,7.5C336.5,50.5,338.7,51.4,341,51.4z"/>
<path class="st1" d="M393.3,16h4.3v42.2h-4.3l-23.6-35.3v35.3h-4.3V16h4.3l23.6,35.3L393.3,16z"/>
<path class="st1" d="M420.7,58.8c-4.4,0.2-8.6-1.6-11.6-4.8c-3-3.2-4.5-7.4-4.5-12.6s1.5-9.4,4.5-12.5c3.1-3.2,7.4-4.9,11.8-4.7
	c4.8,0,8.7,1.5,11.5,4.5c2.8,3,4.4,6.9,4.3,11.1c0,1.1-0.1,2.2-0.2,3.3H409c0.2,3.8,1.3,6.8,3.5,9c2.1,2.2,5.1,3.4,8.2,3.3
	c2.3,0.1,4.6-0.5,6.6-1.8c1.7-1.1,3.1-2.7,3.8-4.6h4.6c-1.1,2.8-2.9,5.3-5.4,7.1C427.4,57.9,424.1,58.9,420.7,58.8z M432.3,39.7
	c0.2-3.3-1-6.4-3.3-8.8c-4.6-4.4-11.8-4.4-16.4-0.1c-2.3,2.4-3.6,5.5-3.6,8.8L432.3,39.7z"/>
<path class="st1" d="M458.5,28.2h-9.2v22.1c-0.1,1.3,0.2,2.5,1,3.5c1,0.8,2.2,1.1,3.5,1h4.8v3.4h-5.7c-5.2,0-7.8-2.6-7.8-7.9V28.2
	h-4.6v-3.4h4.6v-8.4h4.3v8.4h9.2L458.5,28.2z"/>
<path class="st1" d="M504.1,24.8h4.5L498,58.2h-4.3l-8.3-28.1L477,58.2h-4.3l-10.8-33.4h4.5l8.4,28.8l8.6-28.8h4.3l8.1,28.7
	L504.1,24.8z"/>
<path class="st1" d="M526.8,58.8c-4.4,0.2-8.6-1.6-11.7-4.8c-3-3.2-4.5-7.3-4.5-12.5s1.6-9.3,4.8-12.5c6.7-6.4,17.2-6.4,23.8,0
	c3.2,3.2,4.8,7.3,4.8,12.5c0.2,4.7-1.6,9.2-5,12.5C535.8,57.1,531.4,58.9,526.8,58.8z M526.8,55.3c3.4,0,6.6-1.3,9-3.7
	c2.5-2.5,3.8-5.9,3.8-10.2s-1.2-7.7-3.6-10.1c-2.3-2.4-5.5-3.8-8.8-3.7c-3.3-0.1-6.4,1.3-8.7,3.7c-2.3,2.4-3.5,5.8-3.5,10.2
	s1.1,7.8,3.3,10.2C520.4,54.1,523.6,55.4,526.8,55.3L526.8,55.3z"/>
<path class="st1" d="M554.1,24.8v5.5c1.8-4.1,5.3-6.1,10.3-6.1v4.5h-1.2c-2.9,0-5.2,0.8-6.8,2.4c-1.6,1.6-2.3,4.3-2.3,8.2v18.9h-4.3
	V24.8H554.1z"/>
<path class="st1" d="M574.4,58.2h-4.3V12.9h4.3v26.8l13.4-14.9h6.1l-16.2,16.5L594,58.2h-5.9l-13.8-15L574.4,58.2z"/>
</svg>
